<?xml version="1.0" encoding="UTF-8" standalone="no"?>
<svg width="112px" height="20px" viewBox="0 0 112 20" version="1.1" xmlns="http://www.w3.org/2000/svg" xmlns:xlink="http://www.w3.org/1999/xlink" xmlns:sketch="http://www.bohemiancoding.com/sketch/ns">
    <!-- Generator: Sketch 3.3.2 (12043) - http://www.bohemiancoding.com/sketch -->
    <title>Logo Copy</title>
    <desc>Created with Sketch.</desc>
    <defs></defs>
    <g id="Landing" stroke="none" stroke-width="1" fill="none" fill-rule="evenodd" sketch:type="MSPage">
        <g id="Desktop" sketch:type="MSArtboardGroup" transform="translate(-593.000000, -1125.000000)">
            <g id="Don't-go-to-pharmacy" sketch:type="MSLayerGroup" transform="translate(0.000000, 750.000000)">
                <g id="Total-number-of-hour-+-Logo-Copy" transform="translate(321.500000, 375.000000)" sketch:type="MSShapeGroup">
                    <g id="Logo-Copy" transform="translate(272.000000, 0.000000)">
                        <path d="M20.2838817,0.323478261 C14.8426923,0.323478261 10.4318107,4.70326087 10.4318107,10.106087 C10.4318107,15.508913 14.8426923,19.8886957 20.2838817,19.8886957 C25.725071,19.8886957 30.1359527,15.508913 30.1359527,10.106087 C30.1359527,4.70326087 25.725071,0.323478261 20.2838817,0.323478261 L20.2838817,0.323478261 Z M23.9157929,5.81608696 L18.3583491,15.3743478 C18.0792071,15.8541304 17.4710059,16.0241304 16.999858,15.7541304 C16.5287101,15.483913 16.3728284,14.8758696 16.6519704,14.396087 L22.2094142,4.83782609 C22.4885562,4.35804348 23.0967574,4.18804348 23.5679053,4.45804348 C24.0390533,4.72826087 24.1949349,5.33630435 23.9157929,5.81608696 L23.9157929,5.81608696 Z" id="Fill-1" fill="#F09142"></path>
                        <path d="M6.57811834,10.106087 C6.57811834,10.6463043 6.12251479,11.0843478 5.56007101,11.0843478 L1.02833728,11.0843478 C0.465893491,11.0843478 0.0102899408,10.6463043 0.0102899408,10.106087 C0.0102899408,9.56586957 0.465893491,9.12782609 1.02833728,9.12782609 L5.56007101,9.12782609 C6.12251479,9.12782609 6.57811834,9.56586957 6.57811834,10.106087" id="Fill-2" fill="#F09142"></path>
                        <path d="M9.20533728,15.3495652 C9.20533728,15.8897826 8.74973373,16.3278261 8.18728994,16.3278261 L3.65555621,16.3278261 C3.09311243,16.3278261 2.63728994,15.8897826 2.63728994,15.3495652 C2.63728994,14.8093478 3.09311243,14.3713043 3.65555621,14.3713043 L8.18728994,14.3713043 C8.74973373,14.3713043 9.20533728,14.8093478 9.20533728,15.3495652" id="Fill-3" fill="#F09142"></path>
                        <path d="M9.20533728,4.88869565 C9.20533728,5.42891304 8.74973373,5.86695652 8.18728994,5.86695652 L3.65555621,5.86695652 C3.09311243,5.86695652 2.63728994,5.42891304 2.63728994,4.88869565 C2.63728994,4.34847826 3.09311243,3.91043478 3.65555621,3.91043478 L8.18728994,3.91043478 C8.74973373,3.91043478 9.20533728,4.34847826 9.20533728,4.88869565" id="Fill-4" fill="#F09142"></path>
                        <path d="M34.7335858,14.5393478 L41.5450888,6.86695652 L34.9792308,6.86695652 L34.9792308,4.67152174 L44.9841183,4.67152174 L44.9841183,6.51195652 L38.1728343,14.1845652 L44.9841183,14.1845652 L44.9841183,16.38 L34.7335858,16.38 L34.7335858,14.5393478" id="Fill-5" fill="#1373CA"></path>
                        <path d="M46.8236095,4.67152174 L49.5259231,4.67152174 L49.5259231,16.3797826 L46.8236095,16.3797826 L46.8236095,4.67152174 Z" id="Fill-6" fill="#1373CA"></path>
                        <path d="M49.7693787,1.84652174 C49.7693787,2.74695652 49.0341953,3.47695652 48.1273669,3.47695652 C47.2205385,3.47695652 46.485355,2.74695652 46.485355,1.84652174 C46.485355,0.946086957 47.2205385,0.216086957 48.1273669,0.216086957 C49.0341953,0.216086957 49.7693787,0.946086957 49.7693787,1.84652174" id="Fill-7" fill="#1373CA"></path>
                        <path d="M51.3921243,4.67152174 L54.0944379,4.67152174 L54.0944379,6.62304348 C54.9653609,5.40347826 56.1938047,4.4276087 58.1140828,4.4276087 C60.8833905,4.4276087 63.5857041,6.60065217 63.5857041,10.5034783 L63.5857041,10.5480435 C63.5857041,14.4284783 60.905503,16.623913 58.1140828,16.623913 C56.149142,16.623913 54.9206982,15.6482609 54.0944379,14.5617391 L54.0944379,19.9278261 L51.3921243,19.9278261 L51.3921243,4.67152174 L51.3921243,4.67152174 Z M60.8387278,10.5480435 L60.8387278,10.5034783 C60.8387278,8.24173913 59.2978639,6.75586957 57.4664734,6.75586957 C55.6353018,6.75586957 54.0274438,8.26391304 54.0274438,10.5034783 L54.0274438,10.5480435 C54.0274438,12.7876087 55.6353018,14.2954348 57.4664734,14.2954348 C59.3199763,14.2954348 60.8387278,12.8541304 60.8387278,10.5480435 L60.8387278,10.5480435 Z" id="Fill-8" fill="#1373CA"></path>
                        <path d="M64.4463373,10.5480435 L64.4463373,10.5034783 C64.4463373,6.62304348 67.1039882,4.4276087 69.9179586,4.4276087 C71.8610059,4.4276087 73.0892308,5.38108696 73.9378225,6.49 L73.9378225,0.192173913 L76.6401361,0.192173913 L76.6401361,16.38 L73.9378225,16.38 L73.9378225,14.4284783 C73.0666805,15.6482609 71.8384556,16.623913 69.9179586,16.623913 C67.1486509,16.623913 64.4463373,14.4284783 64.4463373,10.5480435 L64.4463373,10.5480435 Z M73.9824852,10.5480435 L73.9824852,10.5034783 C73.9824852,8.24173913 72.3744083,6.75586957 70.565568,6.75586957 C68.7120651,6.75586957 67.1709822,8.17521739 67.1709822,10.5034783 L67.1709822,10.5480435 C67.1709822,12.8097826 68.7341775,14.2954348 70.565568,14.2954348 C72.3744083,14.2954348 73.9824852,12.7876087 73.9824852,10.5480435 L73.9824852,10.5480435 Z" id="Fill-9" fill="#1373CA"></path>
                        <path d="M78.4748107,4.67152174 L81.1769053,4.67152174 L81.1769053,7.31043478 C81.9140592,5.55869565 83.2762722,4.36108696 85.3533077,4.44978261 L85.3533077,7.28826087 L85.1969882,7.28826087 C82.829645,7.28826087 81.1769053,8.81826087 81.1769053,11.9228261 L81.1769053,16.38 L78.4748107,16.38 L78.4748107,4.67152174" id="Fill-10" fill="#1373CA"></path>
                        <path d="M86.7908343,12.1223913 L86.7908343,4.67152174 L89.4931479,4.67152174 L89.4931479,11.3241304 C89.4931479,13.1423913 90.4085148,14.1626087 92.0165917,14.1626087 C93.579787,14.1626087 94.6742426,13.0980435 94.6742426,11.2797826 L94.6742426,4.67152174 L97.3986686,4.67152174 L97.3986686,16.38 L94.6742426,16.38 L94.6742426,14.5617391 C93.9147574,15.6704348 92.8205207,16.623913 90.9893491,16.623913 C88.3316982,16.623913 86.7908343,14.85 86.7908343,12.1223913" id="Fill-11" fill="#1373CA"></path>
                        <path d="M99.3049349,18.5752174 L100.309846,16.5573913 C101.582734,17.3334783 102.900503,17.7991304 104.50858,17.7991304 C106.920148,17.7991304 108.237917,16.5573913 108.237917,14.2069565 L108.237917,13.2976087 C107.255337,14.5617391 106.026893,15.4486957 104.084065,15.4486957 C101.314976,15.4486957 98.7243195,13.4084783 98.7243195,9.97130435 L98.7243195,9.92695652 C98.7243195,6.4676087 101.337089,4.4276087 104.084065,4.4276087 C106.071556,4.4276087 107.3,5.33673913 108.215586,6.42347826 L108.215586,4.67152174 L110.917899,4.67152174 L110.917899,13.985 C110.917899,15.9584783 110.404059,17.4221739 109.421479,18.3978261 C108.349793,19.4623913 106.697053,19.9721739 104.575355,19.9721739 C102.632527,19.9721739 100.823686,19.4843478 99.3049349,18.5752174 L99.3049349,18.5752174 Z M108.260249,9.94934783 L108.260249,9.905 C108.260249,7.99782609 106.674722,6.68956522 104.798669,6.68956522 C102.922834,6.68956522 101.448746,7.97565217 101.448746,9.905 L101.448746,9.94934783 C101.448746,11.8563043 102.945166,13.1645652 104.798669,13.1645652 C106.674722,13.1645652 108.260249,11.8563043 108.260249,9.94934783 L108.260249,9.94934783 Z" id="Fill-12" fill="#1373CA"></path>
                    </g>
                </g>
            </g>
        </g>
    </g>
</svg>