<?xml version="1.0" encoding="UTF-8" standalone="no"?>
<svg width="112px" height="20px" viewBox="0 0 112 20" version="1.1" xmlns="http://www.w3.org/2000/svg" xmlns:xlink="http://www.w3.org/1999/xlink" xmlns:sketch="http://www.bohemiancoding.com/sketch/ns">
    <!-- Generator: Sketch 3.3.2 (12043) - http://www.bohemiancoding.com/sketch -->
    <title>Logo Copy</title>
    <desc>Created with Sketch.</desc>
    <defs></defs>
    <g id="Landing" stroke="none" stroke-width="1" fill="none" fill-rule="evenodd" sketch:type="MSPage">
        <g id="Desktop" sketch:type="MSArtboardGroup" transform="translate(-593.000000, -1125.000000)">
            <g id="Don't-go-to-pharmacy" sketch:type="MSLayerGroup" transform="translate(0.000000, 750.000000)">
                <g id="Total-number-of-hour-+-Logo-Copy" transform="translate(321.500000, 375.000000)" sketch:type="MSShapeGroup">
                    <g id="Logo-Copy" transform="translate(272.000000, 0.000000)">
                        <path d="M20.2838817,0.323478261 C14.8426923,0.323478261 10.4318107,4.70326087 10.4318107,10.106087 C10.4318107,15.508913 14.8426923,19.8886957 20.2838817,19.8886957 C25.725071,19.8886957 30.1359527,15.508913 30.1359527,10.106087 C30.1359527,4.70326087 25.725071,0.323478261 20.2838817,0.323478261 L20.2838817,0.323478261 Z M23.9157929,5.81608696 L18.3583491,15.3743478 C18.0792071,15.8541304 17.4710059,16.0241304 16.999858,15.7541304 C16.5287101,15.483913 16.3728284,14.8758696 16.6519704,14.396087 L22.2094142,4.83782609 C22.4885562,4.35804348 23.0967574,4.18804348 23.5679053,4.45804348 C24.0390533,4.72826087 24.1949349,5.33630435 23.9157929,5.81608696 L23.9157929,5.81608696 Z" id="Fill-1" fill="#F09142"></path>
                        <path d="M6.57811834,10.106087 C6.57811834,10.6463043 6.12251479,11.0843478 5.56007101,11.0843478 L1.02833728,11.0843478 C0.465893491,11.0843478 0.0102899408,10.6463043 0.0102899408,10.106087 C0.0102899408,9.56586957 0.465893491,9.12782609 1.02833728,9.12782609 L5.56007101,9.12782609 C6.12251479,9.12782609 6.57811834,9.56586957 6.57811834,10.106087" id="Fill-2" fill="#F09142"></path>
                        <path d="M9.20533728,15.3495652 C9.20533728,15.8897826 8.74973373,16.3278261 8.18728994,16.3278261 L3.65555621,16.3278261 C3.09311243,16.3278261 2.63728994,15.8897826 2.63728994,15.3495652 C2.63728994,14.8093478 3.09311243,14.3713043 3.65555621,14.3713043 L8.18728994,14.3713043 C8.74973373,14.3713043 9.20533728,14.8093478 9.20533728,15.3495652" id="Fill-3" fill="#F09142"></path>
                        <path d="M9.20533728,4.88869565 C9.20533728,5.42891304 8.74973373,5.86695652 8.18728994,5.86695652 L3.65555621,5.86695652 C3.09311243,5.86695652 2.63728994,5.42891304 2.63728994,4.88869565 C2.63728994,4.34847826 3.09311243,3.91043478 3.65555621,3.91043478 L8.18728994,3.91043478 C8.74973373,3.91043478 9.20533728,4.34847826 9.20533728,4.88869565" id="Fill-4" fill="#F09142"></path>
                    </g>
               </g>
           </g>
       </g>
   </g>
</svg>